<svg id="Capa_1" enable-background="new 0 0 511.967 511.967" height="512" viewBox="0 0 511.967 511.967" width="512"
     xmlns="http://www.w3.org/2000/svg">
    <g fill="#FF0000">
        <path
                d="m352.152 159.804c-10.054-10.054-27.298-22.114-39.151-30.051l-304.233 304.234c-11.687 11.687-11.69 30.714 0 42.424l26.798 26.798c11.696 11.679 30.725 11.681 42.415-.009l304.231-304.231c-11.181-16.7-21.686-30.792-30.06-39.165z"/>
        <path d="m503.199 77.981c11.687-11.687 11.69-30.714 0-42.424l-26.798-26.798c-11.699-11.683-30.728-11.678-42.415.009l-25.202 25.202c-76.076-34.167-195.717-33.045-200.994-32.985-6.86.089-12.787 4.821-14.391 11.492-1.604 6.672 1.523 13.581 7.594 16.778 39.973 21.09 139.49 76.744 172.372 109.335 32.141 32.141 88.196 132.216 109.337 172.384 3.209 6.093 10.129 9.192 16.778 7.594 6.671-1.604 11.403-7.53 11.492-14.391.067-5.277 1.18-124.901-32.985-200.984z"/>
        <path d="m457.267 377.159-18.946-61.586c-2.973-9.667-14.515-13.707-22.875-7.923l-74.797 51.785 39.701 39.701z"/>
        <path d="m503.813 395.061c-134.709 38.489-124.811 35.923-127.829 35.923-3.924 0-7.755-1.541-10.607-4.394l-75.007-75.007-100.594 93.408c-5.757 5.346-6.414 14.229-1.506 20.362l32 40c2.847 3.559 7.156 5.63 11.713 5.63h264c8.694 0 15.583-7.382 14.962-16.068z"/>
    </g>
</svg>